<?xml version="1.0" standalone="no"?><!DOCTYPE svg PUBLIC "-//W3C//DTD SVG 1.1//EN" "http://www.w3.org/Graphics/SVG/1.1/DTD/svg11.dtd"><svg t="1640446113950" class="icon" viewBox="0 0 1024 1024" version="1.1" xmlns="http://www.w3.org/2000/svg" p-id="1899" xmlns:xlink="http://www.w3.org/1999/xlink" width="32" height="32"><defs><style type="text/css"></style></defs><path d="M936.4 806.964l-418.556 182.532-418.556-182.532M936.4 616.304l-418.556 182.528-418.556-182.528" fill="#0060B6" p-id="1900"></path><path d="M517.844 989.496v-190.664L99.288 616.304v190.66zM936.4 616.304v190.66l-418.556 182.532v-190.664z" fill="#64ACE2" p-id="1901"></path><path d="M936.4 615.328l-418.556 182.524-418.556-182.524M936.4 424.664l-418.556 182.528-418.556-182.528" fill="#70BCFF" p-id="1902"></path><path d="M517.844 797.852v-190.66L99.288 424.664v190.664zM936.4 424.664v190.664l-418.556 182.524v-190.66z" fill="#70BCFF" p-id="1903"></path><path d="M936.4 424.664l-418.556 182.528-418.556-182.528" fill="#B3EDFF" p-id="1904"></path><path d="M517.844 408.416L99.288 225.888l418.556-182.532L936.4 225.888z" fill="#FFFFFF" p-id="1905"></path><path d="M517.844 607.192v-198.776L99.288 225.888v198.776zM936.4 225.888v198.776l-418.556 182.528v-198.776z" fill="#B3EDFF" p-id="1906"></path><path d="M966.38 615.568c0.004-0.08 0.02-0.156 0.02-0.24v-0.232V424.472 225.884c0-1.388-0.116-2.76-0.304-4.116-0.06-0.432-0.164-0.852-0.244-1.28a30.5 30.5 0 0 0-0.604-2.708c-0.136-0.492-0.304-0.964-0.464-1.444a30.264 30.264 0 0 0-1.564-3.788 32.424 32.424 0 0 0-1.248-2.248c-0.256-0.42-0.504-0.84-0.776-1.248a30.52 30.52 0 0 0-1.704-2.236c-0.26-0.316-0.496-0.648-0.768-0.952a30.436 30.436 0 0 0-2.9-2.844l-0.068-0.052a30.4 30.4 0 0 0-2.924-2.188c-0.1-0.064-0.208-0.112-0.308-0.176-0.34-0.216-0.704-0.396-1.052-0.596a30.944 30.944 0 0 0-2.62-1.384c-0.156-0.072-0.296-0.168-0.456-0.24L529.836 15.86a30.008 30.008 0 0 0-23.984 0L87.296 198.388c-0.176 0.08-0.332 0.188-0.508 0.268a30.016 30.016 0 0 0-2.456 1.296c-0.4 0.228-0.812 0.432-1.196 0.68-0.092 0.06-0.192 0.1-0.284 0.164-0.968 0.632-1.88 1.332-2.752 2.06-0.08 0.064-0.168 0.116-0.248 0.184a29.668 29.668 0 0 0-2.884 2.832c-0.276 0.308-0.516 0.648-0.78 0.968-0.592 0.72-1.168 1.448-1.688 2.216-0.28 0.416-0.528 0.844-0.788 1.268-0.44 0.724-0.856 1.46-1.236 2.216a30.968 30.968 0 0 0-1.56 3.772c-0.168 0.496-0.336 0.984-0.48 1.488a29.56 29.56 0 0 0-0.592 2.652c-0.084 0.444-0.192 0.884-0.252 1.332a29.828 29.828 0 0 0-0.304 4.108v389.44c0 0.076 0.016 0.148 0.016 0.224v0.06l-0.012 0.592-0.004 0.1v190.656c0 0.096 0.02 0.192 0.02 0.284 0.012 1.216 0.108 2.416 0.264 3.608 0.04 0.292 0.072 0.584 0.12 0.88 0.204 1.248 0.472 2.488 0.828 3.7 0.068 0.232 0.16 0.452 0.232 0.684 0.328 1.02 0.708 2.016 1.14 2.992 0.132 0.292 0.252 0.584 0.392 0.872 0.544 1.132 1.152 2.24 1.836 3.296 0.096 0.144 0.204 0.28 0.3 0.424 0.64 0.948 1.336 1.86 2.084 2.74 0.172 0.2 0.34 0.404 0.516 0.596 0.872 0.968 1.8 1.896 2.804 2.752 0.064 0.056 0.132 0.096 0.196 0.152a29.9 29.9 0 0 0 3.748 2.66c1.124 0.68 2.284 1.316 3.52 1.856l418.556 182.532c1.076 0.468 2.172 0.856 3.276 1.192 0.248 0.076 0.496 0.124 0.744 0.196a31.072 31.072 0 0 0 4.124 0.836c1.276 0.164 2.56 0.276 3.844 0.276h0.008c1.016 0 2.036-0.052 3.052-0.156 0.264-0.028 0.528-0.084 0.788-0.12a30.292 30.292 0 0 0 4.12-0.836c0.248-0.072 0.504-0.12 0.752-0.196a29.8 29.8 0 0 0 3.28-1.192l418.552-182.532a29.752 29.752 0 0 0 4.316-2.356c1.04-0.676 2.04-1.392 2.972-2.172 0.056-0.052 0.116-0.088 0.172-0.136 1.012-0.86 1.94-1.792 2.816-2.764 0.172-0.188 0.332-0.384 0.496-0.576a30.72 30.72 0 0 0 2.12-2.78c0.084-0.132 0.184-0.252 0.268-0.388 0.692-1.072 1.304-2.184 1.856-3.328 0.128-0.268 0.248-0.548 0.368-0.82 0.444-1.004 0.84-2.028 1.176-3.076 0.068-0.208 0.144-0.408 0.208-0.612a30.48 30.48 0 0 0 0.84-3.752c0.044-0.264 0.072-0.532 0.108-0.8 0.164-1.24 0.264-2.484 0.272-3.744 0-0.068 0.016-0.132 0.016-0.2v-0.192-190.468l-0.004-0.072a7.192 7.192 0 0 0-0.004-0.656z m-333.792 291.16l-84.748 36.956V818.48l358.556-156.364v125.2l-273.808 119.412zM129.288 787.316v-125.2l103.64 45.196 254.916 111.168v125.2l-358.556-156.364zM906.4 595.68l-153.772 67.06-204.78 89.3v-125.2l358.556-156.364v125.204z m-418.556 31.16v125.2l-205.112-89.44-153.444-66.92v-125.204l103.64 45.196 254.916 111.168zM906.4 405.02l-99.2 43.26-259.356 113.1v-133.312l358.556-156.36v133.312z m-418.556 23.044v133.312l-358.556-156.36V271.7l358.556 156.364z m29.996-351.98l343.504 149.804-343.504 149.8-343.504-149.8 343.504-149.804z" fill="#6E6E96" p-id="1907"></path></svg>